<svg width="40" height="40" viewBox="0 0 40 40" fill="none" xmlns="http://www.w3.org/2000/svg">
<circle cx="20" cy="20" r="20" fill="#404853" fill-opacity="0.4"/>
<path d="M12.2221 21.1621C12.6981 21.1704 12.9763 21.5036 12.7785 21.8285C12.6548 22.0404 12.4167 22.0893 12.1622 22.1099C11.3824 22.1574 10.6028 22.1341 9.82318 22.1321C9.64262 22.1316 9.60146 22.1811 9.60109 22.3225L9.59801 23.504C9.59775 23.603 9.62225 23.6526 9.76178 23.6459C10.7056 23.6413 11.6575 23.6862 12.6014 23.6321C13.6521 23.5711 14.6545 23.1068 14.9035 22.0534C15.0445 21.4666 14.8654 20.9284 14.4152 20.4674C14.3088 20.3681 14.3335 20.3116 14.4158 20.2198C15.025 19.514 15.0519 18.6509 14.4793 17.9208C14.1276 17.4671 13.6112 17.2252 12.9959 17.1246C12.397 17.0311 11.7898 17.0153 11.1825 17.0137L6.13522 17.0006C5.95467 17.0001 5.91347 17.0637 5.91314 17.191C5.91806 18.4503 5.91476 19.7166 5.90327 20.9758C5.90292 21.1102 5.93564 21.1528 6.09978 21.1532L12.2221 21.1621ZM7.78641 19.5375C7.6551 19.5372 7.60593 19.5088 7.60625 19.3885L7.60789 18.7589C7.6082 18.6386 7.65753 18.6034 7.79705 18.6037L11.6215 18.6137C11.9333 18.6145 12.2616 18.6012 12.565 18.7152C12.7454 18.7794 12.8271 18.8998 12.8349 19.0626C12.8427 19.2324 12.7767 19.3737 12.5877 19.451C12.448 19.5072 12.292 19.5422 12.1279 19.5418L7.78641 19.5375Z" fill="white"/>
<path d="M25.044 17.0499C24.8224 17.0493 24.7566 17.0986 24.7643 17.2897C24.7797 17.6788 24.7787 18.0679 24.7613 18.4569C24.7527 18.6055 24.8018 18.641 24.9742 18.6414L30.8257 18.6567C31.0965 18.6574 31.3755 18.6581 31.638 18.7295C31.884 18.7939 32.0149 18.9498 32.0062 19.162C32.0057 19.3531 31.8493 19.5012 31.603 19.5501C31.3156 19.613 31.0284 19.5981 30.7412 19.5974L25.0045 19.5824C24.824 19.5819 24.7583 19.6101 24.7578 19.7799C24.7627 21.0391 24.7595 22.2913 24.748 23.5505C24.7476 23.6849 24.7886 23.7204 24.9445 23.7208L26.4382 23.7247C26.5941 23.7251 26.6352 23.6828 26.6356 23.5484L26.6412 21.3977C26.6416 21.235 26.6992 21.1927 26.8879 21.1932L31.492 21.2052C32.0747 21.2067 32.674 21.1163 33.1673 20.7993C33.6852 20.4752 33.949 20.0231 33.975 19.4785C34.0007 19.047 34.0347 18.6155 33.8388 18.1976C33.545 17.5602 32.9632 17.2474 32.2002 17.1393C31.7982 17.0816 29.0982 17.0534 29.0982 17.0534L25.044 17.0499Z" fill="white"/>
<path d="M20.488 23.7162L18.8877 23.712C18.7563 23.7117 18.6581 23.6195 18.6584 23.5134L18.6686 19.5871C18.6689 19.4739 18.7758 19.3893 18.8989 19.3896L20.4993 19.3937C20.6306 19.3941 20.7288 19.4863 20.7285 19.5924L20.7183 23.5117C20.718 23.6249 20.6193 23.7166 20.488 23.7162Z" fill="white"/>
<path d="M23.382 18.6161L16.0122 18.5969C15.8809 18.5965 15.7663 18.5042 15.7666 18.384L15.7696 17.2308C15.7699 17.1177 15.8768 17.0189 16.0163 17.0193L23.3861 17.0385C23.5174 17.0388 23.6321 17.1311 23.6318 17.2513L23.6288 18.4115C23.6285 18.5247 23.5133 18.6164 23.382 18.6161Z" fill="white"/>
</svg>
