<svg width="40" height="40" viewBox="0 0 40 40" fill="none" xmlns="http://www.w3.org/2000/svg">
<circle cx="20" cy="20" r="20" fill="#404853" fill-opacity="0.4"/>
<path d="M11.4091 14.2385H9.75861V26.5386H11.4091V14.2385Z" fill="white"/>
<path d="M17.5535 22.0516H16.7037C14.9482 22.0516 13.5202 20.638 13.5202 18.9V14.2347H18.4043C20.1599 14.2347 21.5878 15.6483 21.5878 17.3863V18.6063H19.9373V17.3863C19.9373 16.5497 19.2493 15.8687 18.4043 15.8687H15.1707V18.9C15.1707 19.7366 15.8587 20.4176 16.7037 20.4176H17.5535V22.0516ZM21.7526 23.3765V21.9085C21.7526 20.1706 20.3246 18.757 18.5691 18.757H17.5535V20.3909H18.5691C19.4141 20.3909 20.1021 21.072 20.1021 21.9085V23.3765C20.1021 24.2131 19.4141 24.8941 18.5691 24.8941H15.1707V22.1584H13.5202V26.5281H18.5691C20.3246 26.5281 21.7526 25.1145 21.7526 23.3765Z" fill="white"/>
<path d="M27.3738 26.7617H27.0992C24.9669 26.7617 23.2316 25.0438 23.2316 22.9329V17.8288C23.2316 15.7179 24.9669 14 27.0992 14H27.3738C29.5061 14 31.2414 15.7179 31.2414 17.8288H29.5909C29.5909 16.6193 28.5965 15.6349 27.3747 15.6349H27.1001C25.8784 15.6349 24.884 16.6193 24.884 17.8288V22.9329C24.884 24.1424 25.8784 25.1268 27.1001 25.1268H27.3747C28.5965 25.1268 29.5909 24.1424 29.5909 22.9329H31.2414C31.2414 25.0438 29.5061 26.7617 27.3738 26.7617Z" fill="white"/>
</svg>
