<svg width="40" height="40" viewBox="0 0 40 40" fill="none" xmlns="http://www.w3.org/2000/svg">
<circle cx="20" cy="20" r="20" fill="#404853" fill-opacity="0.4"/>
<path d="M20.1327 8C19.2683 8 18.418 8.18423 17.6103 8.51017C16.8167 8.85028 16.0939 9.3321 15.4845 9.95564C14.8752 10.5792 14.3934 11.3019 14.0674 12.1097C13.7415 12.9174 13.5714 13.7819 13.5856 14.6463V16.8429H18.8998V13.6543C18.8998 13.4985 18.9282 13.3567 18.9849 13.215C19.0415 13.0733 19.1266 12.9458 19.2258 12.8466C19.325 12.7474 19.4525 12.6624 19.5942 12.6057C19.7359 12.549 19.8777 12.5207 20.0335 12.5207H20.2319C20.3737 12.5207 20.5295 12.549 20.6713 12.6057C20.813 12.6624 20.9405 12.7474 21.0397 12.8466C21.1389 12.9458 21.2239 13.0733 21.2806 13.215C21.3373 13.3567 21.3656 13.4985 21.3656 13.6543V22.1855C22.06 22.1855 22.7544 22.0438 23.4063 21.7745C24.0582 21.5052 24.6392 21.1084 25.1352 20.6124C25.6312 20.1165 26.028 19.5213 26.2831 18.8836C26.5523 18.2317 26.694 17.5373 26.694 16.8429V14.6463C26.694 12.8891 26.0138 11.1885 24.7809 9.94147C24.1716 9.31793 23.4488 8.83611 22.6552 8.496C21.8475 8.17006 20.9972 8 20.1327 8Z" fill="white"/>
<path d="M20.2319 26.5077H20.0335C19.8918 26.5077 19.7359 26.4794 19.5942 26.4227C19.4525 26.366 19.3391 26.281 19.2257 26.1818C19.1265 26.0826 19.0415 25.955 18.9848 25.8133C18.9281 25.6716 18.8998 25.5299 18.8998 25.374V16.8429C18.2054 16.8429 17.511 16.9846 16.8591 17.2539C16.2072 17.5231 15.6262 17.9199 15.1302 18.4159C14.6342 18.9119 14.2374 19.5071 13.9823 20.1448C13.7131 20.7967 13.5714 21.4911 13.5714 22.1855V24.3537C13.5572 25.2181 13.7272 26.0826 14.0532 26.8903C14.3791 27.6981 14.861 28.435 15.4703 29.0444C16.0797 29.6679 16.8024 30.1497 17.596 30.4899C18.3896 30.83 19.2541 31 20.1185 31C20.9829 31 21.8474 30.83 22.641 30.4899C23.4346 30.1497 24.1715 29.6679 24.7667 29.0444C25.3761 28.4208 25.8579 27.6981 26.1838 26.8903C26.5098 26.0826 26.6657 25.2181 26.6657 24.3537V22.1855H21.3514V25.374C21.3514 25.5299 21.3231 25.6716 21.2664 25.8133C21.2097 25.955 21.1247 26.0826 21.0255 26.1818C20.9263 26.281 20.7987 26.366 20.657 26.4227C20.5295 26.4794 20.3878 26.5077 20.2319 26.5077Z" fill="white"/>
</svg>
