<svg width="40" height="40" viewBox="0 0 40 40" fill="none" xmlns="http://www.w3.org/2000/svg">
<circle cx="20" cy="20" r="20" fill="#404853" fill-opacity="0.4"/>
<mask id="mask0_481_550" style="mask-type:luminance" maskUnits="userSpaceOnUse" x="8" y="8" width="23" height="23">
<path d="M31 8H8V31H31V8Z" fill="white"/>
</mask>
<g mask="url(#mask0_481_550)">
<path d="M19.4809 31C16.4383 30.998 13.5208 29.7863 11.3685 27.6304C9.2161 25.4746 8.00468 22.5509 8 19.5007C8.00468 16.4505 9.21603 13.5266 11.3684 11.3706C13.5207 9.2145 16.4382 8.00234 19.4809 8C22.5236 8.00234 25.4411 9.2145 27.5934 11.3706C29.7457 13.5266 30.957 16.4505 30.9617 19.5007C30.957 22.5509 29.7457 25.4746 27.5933 27.6304C25.4409 29.7863 22.5234 30.998 19.4809 31ZM19.4809 8.88535C16.6723 8.8873 13.9792 10.0061 11.9924 11.9962C10.0056 13.9863 8.88743 16.6851 8.88315 19.5007C8.88587 22.3167 10.0036 25.0163 11.9908 27.0066C13.978 28.9968 16.672 30.1147 19.4809 30.1147C22.2898 30.1147 24.9838 28.9968 26.971 27.0066C28.9582 25.0163 30.0759 22.3167 30.0786 19.5007C30.0743 16.6851 28.9561 13.9863 26.9693 11.9962C24.9826 10.0061 22.2895 8.8873 19.4809 8.88535Z" fill="white"/>
<path d="M20.9324 29.1806C18.4117 29.1786 15.9947 28.1744 14.2115 26.3882C12.4284 24.602 11.4248 22.1797 11.421 19.6527C11.4248 17.1257 12.4284 14.7034 14.2115 12.9172C15.9947 11.131 18.4117 10.1268 20.9324 10.1248C23.4531 10.1268 25.8702 11.131 27.6533 12.9172C29.4364 14.7034 30.44 17.1257 30.4439 19.6527C30.44 22.1797 29.4364 24.602 27.6533 26.3882C25.8702 28.1744 23.4531 29.1786 20.9324 29.1806ZM20.9324 10.8124C18.5937 10.8144 16.3513 11.7462 14.6971 13.4035C13.0428 15.0608 12.1118 17.3082 12.1083 19.6527C12.1122 21.997 13.0434 24.244 14.6976 25.9009C16.3518 27.5579 18.594 28.4895 20.9324 28.4915C23.2708 28.4895 25.513 27.5579 27.1672 25.9009C28.8214 24.244 29.7526 21.997 29.7565 19.6527C29.7526 17.3084 28.8214 15.0614 27.1672 13.4044C25.513 11.7475 23.2708 10.8159 20.9324 10.8139V10.8124Z" fill="white"/>
<path d="M22.3834 27.3626C20.3846 27.3611 18.4681 26.5648 17.0542 25.1484C15.6403 23.7321 14.8445 21.8114 14.8414 19.8076C14.8445 17.8038 15.6403 15.8831 17.0542 14.4668C18.4681 13.0504 20.3846 12.2542 22.3834 12.2526C24.3823 12.2538 26.2991 13.0499 27.7131 14.4663C29.127 15.8827 29.9227 17.8037 29.9255 19.8076C29.9223 21.8114 29.1265 23.7321 27.7126 25.1484C26.2987 26.5648 24.3822 27.3611 22.3834 27.3626ZM22.3834 12.744C20.5145 12.7451 18.7224 13.4895 17.4003 14.8138C16.0782 16.138 15.3342 17.934 15.3315 19.8076C15.3346 21.6809 16.0788 23.4765 17.4009 24.8005C18.7229 26.1244 20.5148 26.8686 22.3834 26.8698C24.2521 26.8686 26.044 26.1244 27.366 24.8005C28.688 23.4765 29.4322 21.6809 29.4354 19.8076C29.4326 17.934 28.6886 16.138 27.3665 14.8138C26.0444 13.4895 24.2523 12.7451 22.3834 12.744Z" fill="white"/>
<path d="M23.8349 25.5432C22.3581 25.542 20.942 24.9537 19.8973 23.9072C18.8526 22.8607 18.2647 21.4416 18.2623 19.9611C18.2643 18.4803 18.8521 17.0607 19.8968 16.0139C20.9416 14.9671 22.3578 14.3786 23.8349 14.3774C25.312 14.3786 26.7284 14.9671 27.7731 16.0139C28.8178 17.0607 29.4056 18.4803 29.4076 19.9611C29.4052 21.4416 28.8173 22.8607 27.7726 23.9072C26.7279 24.9537 25.3118 25.542 23.8349 25.5432ZM23.8349 14.6726C22.4359 14.6737 21.0945 15.2312 20.105 16.2226C19.1155 17.2141 18.5587 18.5585 18.5567 19.9611C18.5591 21.3633 19.116 22.7074 20.1055 23.6985C21.095 24.6897 22.4362 25.2469 23.8349 25.2481C25.2337 25.2469 26.5749 24.6897 27.5644 23.6985C28.5539 22.7074 29.1109 21.3633 29.1132 19.9611C29.1112 18.5585 28.5545 17.2141 27.565 16.2226C26.5754 15.2312 25.234 14.6737 23.8349 14.6726Z" fill="white"/>
</g>
</svg>
