<svg width="482" height="68" viewBox="0 0 482 68" fill="none" xmlns="http://www.w3.org/2000/svg">
<path fill-rule="evenodd" clip-rule="evenodd" d="M218.678 51.8566C218.678 52.9183 217.797 53.797 216.732 53.797H212.875C211.809 53.797 210.928 52.9183 210.928 51.8566V34.5399C210.928 28.1696 205.748 23.0075 199.357 23.0075C192.965 23.0075 187.786 28.1696 187.786 34.5399V51.8566C187.786 52.9183 186.904 53.797 185.839 53.797H181.982C180.917 53.797 180.035 52.9183 180.035 51.8566V34.5399C180.035 23.9228 188.667 15.3193 199.32 15.3193C209.973 15.3193 218.605 23.9228 218.605 34.5399V51.8566H218.678Z" fill="#5A6B80"/>
<path fill-rule="evenodd" clip-rule="evenodd" d="M116.78 23.0076C110.389 23.0076 105.209 28.1696 105.209 34.5399C105.209 40.9101 110.389 46.0722 116.78 46.0722H126.441C127.506 46.0722 128.388 46.9508 128.388 48.0125V51.8567C128.388 52.9184 127.506 53.797 126.441 53.797H116.78C106.128 53.797 97.4952 45.1935 97.4952 34.5765C97.4952 23.9594 106.128 15.356 116.78 15.356H126.441C127.506 15.356 128.388 16.2346 128.388 17.2963V21.1404C128.388 22.2021 127.506 23.0808 126.441 23.0808H116.78V23.0076Z" fill="#5A6B80"/>
<path fill-rule="evenodd" clip-rule="evenodd" d="M89.7811 17.2592C89.7811 16.1975 88.8995 15.3188 87.8342 15.3188H83.9772C82.9119 15.3188 82.0303 16.1975 82.0303 17.2592V51.8562C82.0303 52.9179 82.9119 53.7965 83.9772 53.7965H87.8342C88.8995 53.7965 89.7811 52.9179 89.7811 51.8562V17.2592Z" fill="#5A6B80"/>
<path d="M153.073 15.1362C142.273 15.1362 133.494 23.8861 133.494 34.6496C133.494 45.4131 142.273 54.1631 153.073 54.1631C163.872 54.1631 172.652 45.4131 172.652 34.6496C172.652 23.8861 163.872 15.1362 153.073 15.1362ZM154.322 46.841C146.534 47.6098 140.032 41.1297 140.804 33.3683C141.392 27.6204 146.02 22.9709 151.787 22.4217C159.574 21.6529 166.076 28.133 165.305 35.8944C164.754 41.6423 160.089 46.2552 154.322 46.841Z" fill="#5A6B80"/>
<path d="M5.54401 67.7155C8.58931 67.7155 11.088 65.1782 11.088 62.0858C11.088 58.9934 8.58931 56.4561 5.54401 56.4561C2.49871 56.4561 0 58.9934 0 62.0858C0 65.1782 2.49871 67.7155 5.54401 67.7155Z" fill="url(#paint0_linear_239_2)"/>
<path d="M61.3745 11.2594C64.4198 11.2594 66.9185 8.72209 66.9185 5.62971C66.9185 2.53734 64.4198 0 61.3745 0C58.3292 0 55.8305 2.53734 55.8305 5.62971C55.7524 8.72209 58.2511 11.2594 61.3745 11.2594Z" fill="url(#paint1_linear_239_2)"/>
<path d="M17.4129 43.9279C17.6471 43.69 17.7252 43.2935 17.569 42.9764C15.9293 39.884 15.2265 36.2366 15.5388 32.4306C16.3978 23.7085 23.3473 16.7308 31.9366 15.8586C35.6847 15.4621 39.1985 16.2551 42.3219 17.8409C42.6342 17.9995 43.0246 17.9202 43.2589 17.6823L49.1152 11.7354C49.4276 11.4183 49.4276 10.7839 48.9591 10.5461C44.5082 7.77084 39.3546 6.10571 33.8106 6.10571C18.3499 6.10571 5.93443 18.7131 5.93443 34.3336C5.93443 39.9633 7.57421 45.2758 10.4633 49.7162C10.6976 50.1126 11.3223 50.1919 11.6346 49.7955L17.4129 43.9279Z" fill="url(#paint2_linear_239_2)"/>
<path d="M49.6618 23.7883C49.4275 24.0262 49.3495 24.4227 49.5837 24.7398C51.5358 28.0701 52.5509 31.9554 52.0824 36.2371C51.2235 44.9592 44.274 51.9369 35.6846 52.8091C31.5462 53.2056 27.6419 52.2541 24.3624 50.2718C24.05 50.1132 23.6596 50.1132 23.4254 50.3511L17.7252 56.1394C17.4128 56.4565 17.4128 57.0909 17.8033 57.3287C22.3322 60.5797 27.8762 62.4034 33.8106 62.4034C49.1933 62.562 61.6868 49.8753 61.6868 34.3341C61.6868 28.308 59.8128 22.6782 56.6113 18.0793C56.299 17.6829 55.7524 17.6829 55.4401 18L49.6618 23.7883Z" fill="url(#paint3_linear_239_2)"/>
<path d="M253.713 22.6261C253.589 22.2243 253.418 21.8646 253.2 21.5471C252.987 21.2246 252.729 20.9492 252.426 20.721C252.128 20.4928 251.786 20.3216 251.399 20.2075C251.012 20.0885 250.59 20.0289 250.134 20.0289C249.315 20.0289 248.586 20.2348 247.946 20.6466C247.306 21.0584 246.802 21.6636 246.435 22.4624C246.073 23.2562 245.892 24.2236 245.892 25.3647C245.892 26.5157 246.073 27.4906 246.435 28.2893C246.797 29.0881 247.301 29.6958 247.946 30.1126C248.591 30.5244 249.34 30.7302 250.193 30.7302C250.967 30.7302 251.637 30.5814 252.203 30.2837C252.773 29.9861 253.212 29.5644 253.52 29.0186C253.828 28.4679 253.981 27.823 253.981 27.0838L254.606 27.1805H250.469V25.0224H256.653V26.8531C256.653 28.1579 256.375 29.2865 255.819 30.2391C255.264 31.1916 254.5 31.9259 253.527 32.4419C252.555 32.9529 251.439 33.2084 250.179 33.2084C248.775 33.2084 247.542 32.8933 246.48 32.2633C245.423 31.6282 244.597 30.7278 244.002 29.5619C243.411 28.391 243.116 27.0019 243.116 25.3945C243.116 24.1641 243.29 23.0652 243.637 22.0978C243.989 21.1303 244.481 20.3092 245.111 19.6345C245.741 18.9548 246.48 18.4389 247.328 18.0866C248.177 17.7294 249.099 17.5508 250.097 17.5508C250.94 17.5508 251.726 17.6748 252.456 17.9229C253.185 18.166 253.832 18.5133 254.398 18.9648C254.969 19.4162 255.437 19.952 255.805 20.5722C256.172 21.1923 256.412 21.877 256.526 22.6261H253.713ZM261.837 33V17.7592H271.75V20.0736H264.598V24.2112H271.236V26.5256H264.598V30.6856H271.809V33H261.837ZM289.606 17.7592V33H287.15L279.969 22.6187H279.842V33H277.081V17.7592H279.552L286.726 28.1479H286.86V17.7592H289.606ZM295.129 33V17.7592H305.041V20.0736H297.89V24.2112H304.528V26.5256H297.89V30.6856H305.101V33H295.129ZM310.373 33V17.7592H316.088C317.259 17.7592 318.241 17.9626 319.035 18.3694C319.834 18.7762 320.437 19.3468 320.844 20.081C321.255 20.8103 321.461 21.6612 321.461 22.6336C321.461 23.6109 321.253 24.4593 320.836 25.1787C320.424 25.8931 319.817 26.4462 319.013 26.8382C318.209 27.2252 317.222 27.4186 316.051 27.4186H311.98V25.1266H315.679C316.364 25.1266 316.924 25.0323 317.361 24.8438C317.797 24.6503 318.12 24.37 318.328 24.0029C318.542 23.6308 318.648 23.1743 318.648 22.6336C318.648 22.0928 318.542 21.6314 318.328 21.2494C318.115 20.8624 317.79 20.5697 317.353 20.3713C316.917 20.1678 316.354 20.0661 315.664 20.0661H313.134V33H310.373ZM318.246 26.094L322.019 33H318.938L315.232 26.094H318.246ZM328.475 33H325.528L330.893 17.7592H334.301L339.674 33H336.727L332.657 20.8847H332.538L328.475 33ZM328.571 27.0242H336.608V29.2419H328.571V27.0242ZM344.197 33V17.7592H346.958V30.6856H353.67V33H344.197ZM366.294 17.7592H369.672L374.197 28.8028H374.376L378.9 17.7592H382.279V33H379.63V22.5294H379.488L375.276 32.9553H373.297L369.085 22.5071H368.943V33H366.294V17.7592ZM387.8 33V17.7592H397.713V20.0736H390.561V24.2112H397.199V26.5256H390.561V30.6856H397.772V33H387.8ZM411.327 21.9489C411.257 21.299 410.965 20.793 410.449 20.4308C409.938 20.0686 409.273 19.8875 408.454 19.8875C407.879 19.8875 407.385 19.9744 406.973 20.148C406.562 20.3216 406.246 20.5573 406.028 20.855C405.81 21.1526 405.698 21.4925 405.693 21.8745C405.693 22.192 405.765 22.4674 405.909 22.7005C406.058 22.9337 406.259 23.1322 406.512 23.2959C406.765 23.4546 407.045 23.5886 407.353 23.6977C407.66 23.8069 407.97 23.8987 408.283 23.9731L409.712 24.3303C410.287 24.4642 410.841 24.6453 411.371 24.8735C411.907 25.1018 412.386 25.3895 412.808 25.7368C413.234 26.0841 413.572 26.5033 413.82 26.9945C414.068 27.4856 414.192 28.0611 414.192 28.721C414.192 29.614 413.964 30.4003 413.507 31.08C413.051 31.7547 412.391 32.2831 411.528 32.6651C410.669 33.0422 409.63 33.2307 408.41 33.2307C407.224 33.2307 406.194 33.0471 405.321 32.68C404.453 32.3129 403.773 31.7771 403.282 31.0726C402.796 30.3681 402.533 29.5098 402.493 28.4977H405.21C405.249 29.0286 405.413 29.4701 405.701 29.8223C405.988 30.1746 406.363 30.4375 406.824 30.6112C407.291 30.7848 407.812 30.8716 408.387 30.8716C408.988 30.8716 409.513 30.7823 409.965 30.6037C410.421 30.4202 410.779 30.1672 411.037 29.8447C411.294 29.5172 411.426 29.1352 411.431 28.6986C411.426 28.3017 411.309 27.9743 411.081 27.7163C410.853 27.4534 410.533 27.2351 410.121 27.0614C409.714 26.8828 409.238 26.7241 408.692 26.5852L406.958 26.1387C405.703 25.8162 404.711 25.3275 403.982 24.6726C403.257 24.0128 402.895 23.1371 402.895 22.0457C402.895 21.1477 403.138 20.3613 403.624 19.6866C404.116 19.0119 404.783 18.4885 405.626 18.1164C406.47 17.7393 407.425 17.5508 408.491 17.5508C409.573 17.5508 410.521 17.7393 411.334 18.1164C412.153 18.4885 412.795 19.0069 413.262 19.6717C413.728 20.3316 413.969 21.0906 413.983 21.9489H411.327ZM427.451 21.9489C427.381 21.299 427.089 20.793 426.573 20.4308C426.062 20.0686 425.397 19.8875 424.578 19.8875C424.003 19.8875 423.509 19.9744 423.097 20.148C422.685 20.3216 422.37 20.5573 422.152 20.855C421.934 21.1526 421.822 21.4925 421.817 21.8745C421.817 22.192 421.889 22.4674 422.033 22.7005C422.182 22.9337 422.383 23.1322 422.636 23.2959C422.889 23.4546 423.169 23.5886 423.477 23.6977C423.784 23.8069 424.094 23.8987 424.407 23.9731L425.836 24.3303C426.411 24.4642 426.964 24.6453 427.495 24.8735C428.031 25.1018 428.51 25.3895 428.932 25.7368C429.358 26.0841 429.696 26.5033 429.944 26.9945C430.192 27.4856 430.316 28.0611 430.316 28.721C430.316 29.614 430.088 30.4003 429.631 31.08C429.175 31.7547 428.515 32.2831 427.652 32.6651C426.793 33.0422 425.754 33.2307 424.533 33.2307C423.348 33.2307 422.318 33.0471 421.445 32.68C420.577 32.3129 419.897 31.7771 419.406 31.0726C418.92 30.3681 418.657 29.5098 418.617 28.4977H421.334C421.373 29.0286 421.537 29.4701 421.825 29.8223C422.112 30.1746 422.487 30.4375 422.948 30.6112C423.415 30.7848 423.936 30.8716 424.511 30.8716C425.111 30.8716 425.637 30.7823 426.089 30.6037C426.545 30.4202 426.902 30.1672 427.16 29.8447C427.418 29.5172 427.55 29.1352 427.555 28.6986C427.55 28.3017 427.433 27.9743 427.205 27.7163C426.977 27.4534 426.657 27.2351 426.245 27.0614C425.838 26.8828 425.362 26.7241 424.816 26.5852L423.082 26.1387C421.827 25.8162 420.835 25.3275 420.106 24.6726C419.381 24.0128 419.019 23.1371 419.019 22.0457C419.019 21.1477 419.262 20.3613 419.748 19.6866C420.24 19.0119 420.907 18.4885 421.75 18.1164C422.594 17.7393 423.549 17.5508 424.615 17.5508C425.697 17.5508 426.644 17.7393 427.458 18.1164C428.277 18.4885 428.919 19.0069 429.386 19.6717C429.852 20.3316 430.093 21.0906 430.107 21.9489H427.451ZM437.003 33H434.057L439.422 17.7592H442.83L448.203 33H445.256L441.186 20.8847H441.067L437.003 33ZM437.1 27.0242H445.137V29.2419H437.1V27.0242ZM462.219 22.6261C462.095 22.2243 461.924 21.8646 461.706 21.5471C461.493 21.2246 461.235 20.9492 460.932 20.721C460.634 20.4928 460.292 20.3216 459.905 20.2075C459.518 20.0885 459.096 20.0289 458.64 20.0289C457.821 20.0289 457.092 20.2348 456.452 20.6466C455.812 21.0584 455.309 21.6636 454.941 22.4624C454.579 23.2562 454.398 24.2236 454.398 25.3647C454.398 26.5157 454.579 27.4906 454.941 28.2893C455.304 29.0881 455.807 29.6958 456.452 30.1126C457.097 30.5244 457.846 30.7302 458.699 30.7302C459.473 30.7302 460.143 30.5814 460.709 30.2837C461.279 29.9861 461.718 29.5644 462.026 29.0186C462.334 28.4679 462.487 27.823 462.487 27.0838L463.112 27.1805H458.975V25.0224H465.159V26.8531C465.159 28.1579 464.881 29.2865 464.325 30.2391C463.77 31.1916 463.006 31.9259 462.033 32.4419C461.061 32.9529 459.945 33.2084 458.685 33.2084C457.281 33.2084 456.048 32.8933 454.986 32.2633C453.929 31.6282 453.103 30.7278 452.508 29.5619C451.918 28.391 451.622 27.0019 451.622 25.3945C451.622 24.1641 451.796 23.0652 452.143 22.0978C452.496 21.1303 452.987 20.3092 453.617 19.6345C454.247 18.9548 454.986 18.4389 455.834 18.0866C456.683 17.7294 457.606 17.5508 458.603 17.5508C459.446 17.5508 460.232 17.6748 460.962 17.9229C461.691 18.166 462.339 18.5133 462.904 18.9648C463.475 19.4162 463.943 19.952 464.311 20.5722C464.678 21.1923 464.918 21.877 465.032 22.6261H462.219ZM470.343 33V17.7592H480.256V20.0736H473.104V24.2112H479.742V26.5256H473.104V30.6856H480.315V33H470.343ZM243.503 54V38.7592H249.219C250.389 38.7592 251.372 38.9775 252.166 39.4141C252.964 39.8506 253.567 40.451 253.974 41.215C254.386 41.974 254.592 42.8373 254.592 43.8047C254.592 44.7821 254.386 45.6503 253.974 46.4094C253.562 47.1684 252.954 47.7662 252.151 48.2028C251.347 48.6345 250.357 48.8503 249.181 48.8503H245.393V46.5805H248.809C249.494 46.5805 250.055 46.4615 250.491 46.2233C250.928 45.9852 251.25 45.6577 251.459 45.241C251.672 44.8243 251.779 44.3455 251.779 43.8047C251.779 43.264 251.672 42.7877 251.459 42.3759C251.25 41.9641 250.925 41.6441 250.484 41.4159C250.047 41.1827 249.484 41.0661 248.794 41.0661H246.264V54H243.503ZM259.763 54H256.816L262.182 38.7592H265.59L270.963 54H268.016L263.945 41.8847H263.826L259.763 54ZM259.86 48.0242H267.897V50.2419H259.86V48.0242ZM283.522 42.9489C283.453 42.299 283.16 41.793 282.644 41.4308C282.133 41.0686 281.468 40.8875 280.65 40.8875C280.074 40.8875 279.581 40.9744 279.169 41.148C278.757 41.3216 278.442 41.5573 278.224 41.855C278.005 42.1526 277.894 42.4925 277.889 42.8745C277.889 43.192 277.961 43.4674 278.105 43.7005C278.253 43.9337 278.454 44.1322 278.707 44.2959C278.96 44.4546 279.241 44.5886 279.548 44.6977C279.856 44.8069 280.166 44.8987 280.479 44.9731L281.907 45.3303C282.483 45.4642 283.036 45.6453 283.567 45.8735C284.103 46.1018 284.581 46.3895 285.003 46.7368C285.43 47.0841 285.767 47.5033 286.015 47.9945C286.263 48.4856 286.387 49.0611 286.387 49.721C286.387 50.614 286.159 51.4003 285.703 52.08C285.246 52.7547 284.586 53.2831 283.723 53.6651C282.865 54.0422 281.825 54.2307 280.605 54.2307C279.419 54.2307 278.39 54.0471 277.517 53.68C276.648 53.3129 275.969 52.7771 275.478 52.0726C274.991 51.3681 274.728 50.5098 274.689 49.4977H277.405C277.445 50.0286 277.608 50.4701 277.896 50.8223C278.184 51.1746 278.559 51.4375 279.02 51.6112C279.486 51.7848 280.007 51.8716 280.583 51.8716C281.183 51.8716 281.709 51.7823 282.16 51.6037C282.617 51.4202 282.974 51.1672 283.232 50.8447C283.49 50.5172 283.621 50.1352 283.626 49.6986C283.621 49.3017 283.505 48.9743 283.277 48.7163C283.048 48.4534 282.728 48.2351 282.317 48.0614C281.91 47.8828 281.434 47.7241 280.888 47.5852L279.154 47.1387C277.899 46.8162 276.906 46.3275 276.177 45.6726C275.453 45.0128 275.091 44.1371 275.091 43.0457C275.091 42.1477 275.334 41.3613 275.82 40.6866C276.311 40.0119 276.978 39.4885 277.822 39.1164C278.665 38.7393 279.62 38.5508 280.687 38.5508C281.768 38.5508 282.716 38.7393 283.53 39.1164C284.348 39.4885 284.991 40.0069 285.457 40.6717C285.923 41.3316 286.164 42.0906 286.179 42.9489H283.522ZM299.646 42.9489C299.577 42.299 299.284 41.793 298.768 41.4308C298.257 41.0686 297.592 40.8875 296.774 40.8875C296.198 40.8875 295.704 40.9744 295.293 41.148C294.881 41.3216 294.566 41.5573 294.348 41.855C294.129 42.1526 294.018 42.4925 294.013 42.8745C294.013 43.192 294.085 43.4674 294.229 43.7005C294.377 43.9337 294.578 44.1322 294.831 44.2959C295.084 44.4546 295.365 44.5886 295.672 44.6977C295.98 44.8069 296.29 44.8987 296.602 44.9731L298.031 45.3303C298.607 45.4642 299.16 45.6453 299.691 45.8735C300.227 46.1018 300.705 46.3895 301.127 46.7368C301.554 47.0841 301.891 47.5033 302.139 47.9945C302.387 48.4856 302.511 49.0611 302.511 49.721C302.511 50.614 302.283 51.4003 301.827 52.08C301.37 52.7547 300.71 53.2831 299.847 53.6651C298.989 54.0422 297.949 54.2307 296.729 54.2307C295.543 54.2307 294.514 54.0471 293.641 53.68C292.772 53.3129 292.093 52.7771 291.602 52.0726C291.115 51.3681 290.852 50.5098 290.813 49.4977H293.529C293.569 50.0286 293.732 50.4701 294.02 50.8223C294.308 51.1746 294.682 51.4375 295.144 51.6112C295.61 51.7848 296.131 51.8716 296.707 51.8716C297.307 51.8716 297.833 51.7823 298.284 51.6037C298.741 51.4202 299.098 51.1672 299.356 50.8447C299.614 50.5172 299.745 50.1352 299.75 49.6986C299.745 49.3017 299.629 48.9743 299.401 48.7163C299.172 48.4534 298.852 48.2351 298.441 48.0614C298.034 47.8828 297.557 47.7241 297.012 47.5852L295.278 47.1387C294.023 46.8162 293.03 46.3275 292.301 45.6726C291.577 45.0128 291.215 44.1371 291.215 43.0457C291.215 42.1477 291.458 41.3613 291.944 40.6866C292.435 40.0119 293.102 39.4885 293.946 39.1164C294.789 38.7393 295.744 38.5508 296.811 38.5508C297.892 38.5508 298.84 38.7393 299.654 39.1164C300.472 39.4885 301.115 40.0069 301.581 40.6717C302.047 41.3316 302.288 42.0906 302.303 42.9489H299.646ZM310.248 38.7592V54H307.487V38.7592H310.248ZM328.277 38.7592V54H325.822L318.64 43.6187H318.514V54H315.753V38.7592H318.223L325.397 49.1479H325.531V38.7592H328.277ZM344.011 43.6261C343.887 43.2243 343.715 42.8646 343.497 42.5471C343.284 42.2246 343.026 41.9492 342.723 41.721C342.425 41.4928 342.083 41.3216 341.696 41.2075C341.309 41.0885 340.887 41.0289 340.431 41.0289C339.612 41.0289 338.883 41.2348 338.243 41.6466C337.603 42.0584 337.1 42.6636 336.732 43.4624C336.37 44.2562 336.189 45.2236 336.189 46.3647C336.189 47.5157 336.37 48.4906 336.732 49.2893C337.095 50.0881 337.598 50.6958 338.243 51.1126C338.888 51.5244 339.637 51.7302 340.491 51.7302C341.265 51.7302 341.934 51.5814 342.5 51.2837C343.07 50.9861 343.509 50.5644 343.817 50.0186C344.125 49.4679 344.278 48.823 344.278 48.0838L344.904 48.1805H340.766V46.0224H346.95V47.8531C346.95 49.1579 346.672 50.2865 346.117 51.2391C345.561 52.1916 344.797 52.9259 343.825 53.4419C342.852 53.9529 341.736 54.2084 340.476 54.2084C339.072 54.2084 337.839 53.8933 336.777 53.2633C335.72 52.6282 334.894 51.7278 334.299 50.5619C333.709 49.391 333.413 48.0019 333.413 46.3945C333.413 45.1641 333.587 44.0652 333.934 43.0978C334.287 42.1303 334.778 41.3092 335.408 40.6345C336.038 39.9548 336.777 39.4389 337.625 39.0866C338.474 38.7294 339.397 38.5508 340.394 38.5508C341.237 38.5508 342.024 38.6748 342.753 38.9229C343.482 39.166 344.13 39.5133 344.695 39.9648C345.266 40.4162 345.735 40.952 346.102 41.5722C346.469 42.1923 346.709 42.877 346.824 43.6261H344.011ZM360.398 46.3796C360.398 44.5191 360.644 42.81 361.135 41.2522C361.631 39.6894 362.368 38.2457 363.345 36.9211H365.883C365.506 37.4122 365.153 38.015 364.826 38.7294C364.499 39.4389 364.213 40.2178 363.97 41.0661C363.732 41.9095 363.543 42.7852 363.405 43.6931C363.271 44.601 363.204 45.4965 363.204 46.3796C363.204 47.5554 363.32 48.7461 363.553 49.9517C363.792 51.1572 364.112 52.276 364.513 53.3079C364.92 54.3349 365.377 55.1758 365.883 55.8307H363.345C362.368 54.506 361.631 53.0648 361.135 51.507C360.644 49.9442 360.398 48.2351 360.398 46.3796ZM372.916 38.7592L376.273 44.3405H376.392L379.763 38.7592H382.911L378.215 46.3796L382.985 54H379.785L376.392 48.4559H376.273L372.879 54H369.694L374.509 46.3796L369.754 38.7592H372.916ZM400.086 43.9015H397.303C397.223 43.445 397.077 43.0407 396.864 42.6885C396.65 42.3312 396.385 42.0286 396.067 41.7806C395.75 41.5325 395.388 41.3465 394.981 41.2224C394.579 41.0934 394.145 41.0289 393.679 41.0289C392.85 41.0289 392.116 41.2373 391.476 41.654C390.836 42.0658 390.335 42.6711 389.972 43.4698C389.61 44.2636 389.429 45.2336 389.429 46.3796C389.429 47.5455 389.61 48.5278 389.972 49.3265C390.34 50.1203 390.841 50.7206 391.476 51.1275C392.116 51.5293 392.848 51.7302 393.671 51.7302C394.127 51.7302 394.554 51.6707 394.951 51.5516C395.353 51.4276 395.713 51.2465 396.03 51.0084C396.353 50.7703 396.623 50.4775 396.841 50.1303C397.065 49.783 397.218 49.3861 397.303 48.9396L400.086 48.9545C399.982 49.6788 399.756 50.3585 399.409 50.9935C399.066 51.6285 398.617 52.1892 398.062 52.6754C397.506 53.1566 396.856 53.5336 396.112 53.8065C395.368 54.0744 394.542 54.2084 393.634 54.2084C392.294 54.2084 391.099 53.8983 390.047 53.2781C388.995 52.658 388.167 51.7625 387.561 50.5917C386.956 49.4208 386.653 48.0168 386.653 46.3796C386.653 44.7374 386.959 43.3334 387.569 42.1675C388.179 40.9967 389.01 40.1012 390.062 39.481C391.114 38.8609 392.304 38.5508 393.634 38.5508C394.482 38.5508 395.271 38.6699 396 38.908C396.73 39.1462 397.38 39.4959 397.95 39.9573C398.521 40.4137 398.989 40.9744 399.357 41.6392C399.729 42.299 399.972 43.0531 400.086 43.9015ZM406.902 54H403.955L409.321 38.7592H412.729L418.102 54H415.155L411.084 41.8847H410.965L406.902 54ZM406.999 48.0242H415.036V50.2419H406.999V48.0242ZM422.624 54V38.7592H425.385V51.6856H432.097V54H422.624ZM437.008 54V38.7592H439.769V51.6856H446.482V54H437.008ZM456.081 46.3796C456.081 48.2351 455.833 49.9442 455.337 51.507C454.846 53.0648 454.112 54.506 453.134 55.8307H450.597C450.979 55.3395 451.331 54.7392 451.653 54.0298C451.981 53.3203 452.264 52.5414 452.502 51.693C452.745 50.8447 452.933 49.9665 453.067 49.0586C453.206 48.1507 453.276 47.2577 453.276 46.3796C453.276 45.2038 453.157 44.0131 452.918 42.8075C452.685 41.602 452.365 40.4832 451.958 39.4513C451.557 38.4193 451.103 37.5759 450.597 36.9211H453.134C454.112 38.2457 454.846 39.6894 455.337 41.2522C455.833 42.81 456.081 44.5191 456.081 46.3796Z" fill="#41B1BD"/>
<defs>
<linearGradient id="paint0_linear_239_2" x1="-0.00465481" y1="62.0977" x2="11.0826" y2="62.0977" gradientUnits="userSpaceOnUse">
<stop stop-color="#19B7CB"/>
<stop offset="1" stop-color="#55C0D3"/>
</linearGradient>
<linearGradient id="paint1_linear_239_2" x1="55.8241" y1="5.64165" x2="66.9131" y2="5.64165" gradientUnits="userSpaceOnUse">
<stop stop-color="#19B7CB"/>
<stop offset="1" stop-color="#55C0D3"/>
</linearGradient>
<linearGradient id="paint2_linear_239_2" x1="5.91621" y1="28.1275" x2="49.3119" y2="28.1275" gradientUnits="userSpaceOnUse">
<stop stop-color="#19B7CB"/>
<stop offset="1" stop-color="#55C0D3"/>
</linearGradient>
<linearGradient id="paint3_linear_239_2" x1="17.4813" y1="40.1354" x2="61.6654" y2="40.1354" gradientUnits="userSpaceOnUse">
<stop stop-color="#19B7CB"/>
<stop offset="1" stop-color="#55C0D3"/>
</linearGradient>
</defs>
</svg>
