<svg width="280" height="42" viewBox="0 0 280 42" fill="none" xmlns="http://www.w3.org/2000/svg">
<path fill-rule="evenodd" clip-rule="evenodd" d="M131.397 31.9503C131.397 32.5853 130.867 33.1108 130.227 33.1108H127.91C127.27 33.1108 126.74 32.5853 126.74 31.9503V21.5931C126.74 17.783 123.628 14.6956 119.787 14.6956C115.947 14.6956 112.835 17.783 112.835 21.5931V31.9503C112.835 32.5853 112.305 33.1108 111.665 33.1108H109.347C108.707 33.1108 108.177 32.5853 108.177 31.9503V21.5931C108.177 15.243 113.364 10.0972 119.765 10.0972C126.166 10.0972 131.353 15.243 131.353 21.5931V31.9503H131.397Z" fill="#5A6B80"/>
<path fill-rule="evenodd" clip-rule="evenodd" d="M70.1696 14.6955C66.3291 14.6955 63.2169 17.783 63.2169 21.593C63.2169 25.4031 66.3291 28.4905 70.1696 28.4905H75.9745C76.6146 28.4905 77.1443 29.016 77.1443 29.651V31.9502C77.1443 32.5852 76.6146 33.1107 75.9745 33.1107H70.1696C63.7687 33.1107 58.5818 27.965 58.5818 21.6149C58.5818 15.2648 63.7687 10.1191 70.1696 10.1191H75.9745C76.6146 10.1191 77.1443 10.6446 77.1443 11.2796V13.5788C77.1443 14.2138 76.6146 14.7393 75.9745 14.7393H70.1696V14.6955Z" fill="#5A6B80"/>
<path fill-rule="evenodd" clip-rule="evenodd" d="M53.9467 11.2574C53.9467 10.6224 53.4169 10.0968 52.7768 10.0968H50.4593C49.8192 10.0968 49.2895 10.6224 49.2895 11.2574V31.9498C49.2895 32.5848 49.8192 33.1104 50.4593 33.1104H52.7768C53.4169 33.1104 53.9467 32.5848 53.9467 31.9498V11.2574Z" fill="#5A6B80"/>
<path d="M91.9766 9.98766C85.4875 9.98766 80.2123 15.221 80.2123 21.6587C80.2123 28.0963 85.4875 33.3297 91.9766 33.3297C98.4657 33.3297 103.741 28.0963 103.741 21.6587C103.741 15.221 98.4657 9.98766 91.9766 9.98766ZM92.727 28.9503C88.0478 29.4101 84.1411 25.5344 84.6046 20.8923C84.9577 17.4545 87.7388 14.6736 91.2041 14.3451C95.8833 13.8853 99.79 17.761 99.3265 22.4031C98.9955 25.8409 96.1923 28.5999 92.727 28.9503Z" fill="#5A6B80"/>
<path d="M3.33122 41.4354C5.16105 41.4354 6.66244 39.9178 6.66244 38.0682C6.66244 36.2187 5.16105 34.7011 3.33122 34.7011C1.5014 34.7011 0 36.2187 0 38.0682C0 39.9178 1.5014 41.4354 3.33122 41.4354Z" fill="url(#paint0_linear_282_7)"/>
<path d="M36.8781 7.66885C38.7079 7.66885 40.2093 6.15127 40.2093 4.30171C40.2093 2.45215 38.7079 0.93457 36.8781 0.93457C35.0482 0.93457 33.5468 2.45215 33.5468 4.30171C33.4999 6.15127 35.0013 7.66885 36.8781 7.66885Z" fill="url(#paint1_linear_282_7)"/>
<path d="M10.4628 27.208C10.6036 27.0657 10.6505 26.8286 10.5567 26.6389C9.57138 24.7893 9.14911 22.6078 9.33678 20.3314C9.85289 15.1147 14.0286 10.9414 19.1897 10.4197C21.4418 10.1826 23.5531 10.6568 25.4299 11.6053C25.6175 11.7002 25.8521 11.6527 25.9929 11.5105L29.5118 7.95362C29.6995 7.76392 29.6995 7.38452 29.4179 7.24225C26.7436 5.58239 23.647 4.58648 20.3157 4.58648C11.0259 4.58648 3.5658 12.127 3.5658 21.4696C3.5658 24.8367 4.55109 28.0142 6.28707 30.67C6.42783 30.9071 6.80318 30.9545 6.99085 30.7174L10.4628 27.208Z" fill="url(#paint2_linear_282_7)"/>
<path d="M29.8402 15.1624C29.6994 15.3047 29.6525 15.5418 29.7932 15.7315C30.9662 17.7234 31.5762 20.0472 31.2946 22.6081C30.7785 27.8248 26.6028 31.9981 21.4417 32.5198C18.955 32.7569 16.6091 32.1878 14.6385 31.0022C14.4509 30.9074 14.2163 30.9074 14.0755 31.0496L10.6505 34.5116C10.4628 34.7013 10.4628 35.0807 10.6974 35.223C13.4187 37.1674 16.7499 38.2582 20.3157 38.2582C29.5587 38.353 37.0656 30.7651 37.0656 21.4699C37.0656 17.8656 35.9396 14.4985 34.0159 11.7479C33.8282 11.5107 33.4998 11.5107 33.3121 11.7004L29.8402 15.1624Z" fill="url(#paint3_linear_282_7)"/>
<path d="M149.417 28.7864H146.314V19.6287H149.479C150.389 19.6287 151.17 19.812 151.822 20.1787C152.478 20.5424 152.982 21.0656 153.334 21.7482C153.686 22.4309 153.862 23.2477 153.862 24.1986C153.862 25.1526 153.684 25.9723 153.329 26.658C152.978 27.3436 152.469 27.8698 151.805 28.2364C151.143 28.6031 150.347 28.7864 149.417 28.7864ZM147.972 27.3511H149.336C149.974 27.3511 150.506 27.2348 150.933 27.0023C151.359 26.7668 151.679 26.4165 151.894 25.9515C152.109 25.4834 152.216 24.8992 152.216 24.1986C152.216 23.4981 152.109 22.9168 151.894 22.4547C151.679 21.9897 151.362 21.6424 150.942 21.4128C150.524 21.1803 150.006 21.0641 149.385 21.0641H147.972V27.3511ZM165.384 24.2076C165.384 25.1943 165.199 26.0394 164.829 26.7429C164.462 27.4435 163.962 27.9801 163.327 28.3527C162.695 28.7253 161.978 28.9116 161.176 28.9116C160.374 28.9116 159.655 28.7253 159.021 28.3527C158.389 27.9771 157.888 27.439 157.518 26.7385C157.151 26.0349 156.968 25.1913 156.968 24.2076C156.968 23.2208 157.151 22.3772 157.518 21.6767C157.888 20.9731 158.389 20.4351 159.021 20.0624C159.655 19.6898 160.374 19.5035 161.176 19.5035C161.978 19.5035 162.695 19.6898 163.327 20.0624C163.962 20.4351 164.462 20.9731 164.829 21.6767C165.199 22.3772 165.384 23.2208 165.384 24.2076ZM163.716 24.2076C163.716 23.513 163.607 22.9272 163.389 22.4502C163.175 21.9703 162.876 21.6081 162.495 21.3637C162.113 21.1162 161.674 20.9925 161.176 20.9925C160.678 20.9925 160.238 21.1162 159.857 21.3637C159.475 21.6081 159.176 21.9703 158.958 22.4502C158.743 22.9272 158.636 23.513 158.636 24.2076C158.636 24.9021 158.743 25.4894 158.958 25.9694C159.176 26.4463 159.475 26.8085 159.857 27.0559C160.238 27.3004 160.678 27.4226 161.176 27.4226C161.674 27.4226 162.113 27.3004 162.495 27.0559C162.876 26.8085 163.175 26.4463 163.389 25.9694C163.607 25.4894 163.716 24.9021 163.716 24.2076ZM176.553 22.7185H174.881C174.833 22.4443 174.745 22.2013 174.617 21.9897C174.489 21.775 174.33 21.5932 174.139 21.4441C173.948 21.2951 173.73 21.1833 173.486 21.1088C173.244 21.0313 172.984 20.9925 172.703 20.9925C172.206 20.9925 171.764 21.1177 171.38 21.3681C170.995 21.6156 170.694 21.9792 170.477 22.4592C170.259 22.9362 170.15 23.5189 170.15 24.2076C170.15 24.9081 170.259 25.4984 170.477 25.9783C170.697 26.4553 170.998 26.816 171.38 27.0604C171.764 27.3019 172.204 27.4226 172.699 27.4226C172.973 27.4226 173.23 27.3868 173.468 27.3153C173.709 27.2408 173.926 27.132 174.116 26.9889C174.31 26.8458 174.473 26.6699 174.604 26.4612C174.738 26.2526 174.83 26.0141 174.881 25.7458L176.553 25.7547C176.491 26.19 176.355 26.5984 176.146 26.9799C175.941 27.3615 175.671 27.6984 175.337 27.9905C175.003 28.2797 174.613 28.5062 174.166 28.6702C173.718 28.8311 173.222 28.9116 172.677 28.9116C171.872 28.9116 171.153 28.7253 170.521 28.3527C169.889 27.9801 169.391 27.442 169.028 26.7385C168.664 26.0349 168.482 25.1913 168.482 24.2076C168.482 23.2208 168.666 22.3772 169.032 21.6767C169.399 20.9731 169.898 20.4351 170.53 20.0624C171.162 19.6898 171.878 19.5035 172.677 19.5035C173.186 19.5035 173.66 19.575 174.099 19.7181C174.537 19.8612 174.927 20.0714 175.27 20.3486C175.613 20.6229 175.895 20.9597 176.115 21.3592C176.339 21.7557 176.485 22.2088 176.553 22.7185ZM185.608 19.6287H187.267V25.6116C187.267 26.2675 187.112 26.8443 186.802 27.3421C186.495 27.84 186.063 28.229 185.505 28.5092C184.948 28.7864 184.297 28.925 183.551 28.925C182.803 28.925 182.15 28.7864 181.593 28.5092C181.035 28.229 180.603 27.84 180.296 27.3421C179.989 26.8443 179.835 26.2675 179.835 25.6116V19.6287H181.494V25.473C181.494 25.8546 181.578 26.1944 181.745 26.4925C181.915 26.7906 182.153 27.0246 182.46 27.1946C182.767 27.3615 183.131 27.445 183.551 27.445C183.972 27.445 184.335 27.3615 184.642 27.1946C184.952 27.0246 185.191 26.7906 185.358 26.4925C185.525 26.1944 185.608 25.8546 185.608 25.473V19.6287ZM190.833 19.6287H192.863L195.582 26.2645H195.689L198.408 19.6287H200.438V28.7864H198.846V22.495H198.761L196.23 28.7596H195.041L192.51 22.4815H192.425V28.7864H190.833V19.6287ZM204.007 28.7864V19.6287H209.964V21.0194H205.666V23.5055H209.655V24.8962H205.666V27.3958H209.999V28.7864H204.007ZM220.945 19.6287V28.7864H219.469L215.154 22.5486H215.078V28.7864H213.419V19.6287H214.903L219.214 25.871H219.295V19.6287H220.945ZM224.113 21.0194V19.6287H231.419V21.0194H228.589V28.7864H226.943V21.0194H224.113ZM234.66 28.7864H232.889L236.113 19.6287H238.161L241.389 28.7864H239.619L237.173 21.5067H237.101L234.66 28.7864ZM234.718 25.1958H239.547V26.5283H234.718V25.1958ZM242.849 21.0194V19.6287H250.156V21.0194H247.325V28.7864H245.68V21.0194H242.849ZM254.986 19.6287V28.7864H253.327V19.6287H254.986ZM266.728 24.2076C266.728 25.1943 266.544 26.0394 266.174 26.7429C265.807 27.4435 265.307 27.9801 264.672 28.3527C264.04 28.7253 263.323 28.9116 262.521 28.9116C261.719 28.9116 261 28.7253 260.365 28.3527C259.733 27.9771 259.233 27.439 258.863 26.7385C258.496 26.0349 258.313 25.1913 258.313 24.2076C258.313 23.2208 258.496 22.3772 258.863 21.6767C259.233 20.9731 259.733 20.4351 260.365 20.0624C261 19.6898 261.719 19.5035 262.521 19.5035C263.323 19.5035 264.04 19.6898 264.672 20.0624C265.307 20.4351 265.807 20.9731 266.174 21.6767C266.544 22.3772 266.728 23.2208 266.728 24.2076ZM265.061 24.2076C265.061 23.513 264.952 22.9272 264.734 22.4502C264.52 21.9703 264.221 21.6081 263.84 21.3637C263.458 21.1162 263.019 20.9925 262.521 20.9925C262.023 20.9925 261.583 21.1162 261.202 21.3637C260.82 21.6081 260.52 21.9703 260.303 22.4502C260.088 22.9272 259.981 23.513 259.981 24.2076C259.981 24.9021 260.088 25.4894 260.303 25.9694C260.52 26.4463 260.82 26.8085 261.202 27.0559C261.583 27.3004 262.023 27.4226 262.521 27.4226C263.019 27.4226 263.458 27.3004 263.84 27.0559C264.221 26.8085 264.52 26.4463 264.734 25.9694C264.952 25.4894 265.061 24.9021 265.061 24.2076ZM277.585 19.6287V28.7864H276.11L271.795 22.5486H271.719V28.7864H270.06V19.6287H271.544L275.855 25.871H275.935V19.6287H277.585Z" fill="#5A6B80"/>
<defs>
<linearGradient id="paint0_linear_282_7" x1="-0.00279693" y1="38.0754" x2="6.65922" y2="38.0754" gradientUnits="userSpaceOnUse">
<stop stop-color="#19B7CB"/>
<stop offset="1" stop-color="#55C0D3"/>
</linearGradient>
<linearGradient id="paint1_linear_282_7" x1="33.543" y1="4.30885" x2="40.2061" y2="4.30885" gradientUnits="userSpaceOnUse">
<stop stop-color="#19B7CB"/>
<stop offset="1" stop-color="#55C0D3"/>
</linearGradient>
<linearGradient id="paint2_linear_282_7" x1="3.55485" y1="17.7577" x2="29.63" y2="17.7577" gradientUnits="userSpaceOnUse">
<stop stop-color="#19B7CB"/>
<stop offset="1" stop-color="#55C0D3"/>
</linearGradient>
<linearGradient id="paint3_linear_282_7" x1="10.5039" y1="24.9396" x2="37.0528" y2="24.9396" gradientUnits="userSpaceOnUse">
<stop stop-color="#19B7CB"/>
<stop offset="1" stop-color="#55C0D3"/>
</linearGradient>
</defs>
</svg>
