<svg width="192" height="32" viewBox="0 0 192 32" fill="none" xmlns="http://www.w3.org/2000/svg">
<path d="M52.5057 14.3277C52.0228 14.207 51.5399 14.0862 51.057 13.9655C49.3065 13.543 47.7673 13.1808 47.7069 12.1546C47.7069 10.9776 49.1858 10.9172 49.6385 10.9172C50.2421 10.9172 50.8156 11.0681 51.2079 11.3397C51.6607 11.6416 51.9021 12.0943 51.8719 12.6074H56.2784C56.037 8.26125 52.053 7.62744 49.6687 7.62744C46.7109 7.62744 43.3004 8.9856 43.3004 12.8186C43.3004 15.8669 45.896 16.5913 48.4011 17.2855L48.6727 17.376C51.4494 18.1607 52.2643 18.4022 52.2643 19.368C52.2643 20.5752 51.1174 20.9978 50.0611 20.9978C48.7029 20.9978 47.8578 20.5752 47.5258 19.7302C47.4051 19.4585 47.3447 19.1265 47.3447 18.7644H42.6666C42.8175 24.0159 48.4916 24.2875 49.6385 24.2875C51.3588 24.2875 56.9726 23.8952 56.9726 18.8549C56.9726 15.9575 54.709 14.9313 52.5057 14.3277Z" fill="#A55C55"/>
<path d="M66.9324 7.62744C62.194 7.62744 58.874 11.0681 58.874 15.9575C58.874 20.8469 62.194 24.2875 66.9324 24.2875C71.6709 24.2875 74.9909 20.8469 74.9909 15.9575C74.9909 11.0681 71.6709 7.62744 66.9324 7.62744ZM66.9324 20.5451C65.3026 20.5451 63.5521 19.3378 63.5521 15.9575C63.5521 12.5772 65.3026 11.3699 66.9324 11.3699C68.5622 11.3699 70.3127 12.5772 70.3127 15.9575C70.3127 19.3378 68.5622 20.5451 66.9324 20.5451Z" fill="#A55C55"/>
<path d="M92.3752 15.9274C92.3752 14.0562 91.8621 7.98975 85.2222 7.98975H77.194V23.8953H84.2564C89.4778 23.8953 92.3752 21.0583 92.3752 15.9274ZM81.8721 20.0623V11.853H83.6226C87.3953 11.853 87.6971 14.9315 87.6971 15.8671C87.6971 17.4365 87.2142 20.0623 83.9848 20.0623H81.8721Z" fill="#A55C55"/>
<path d="M103.663 21.6016L104.357 23.9256H109.186L103.392 8.02002H98.7135L92.8583 23.9256H97.5364L98.2607 21.6016H103.663ZM100.947 13.1207H101.219L102.758 18.4024H99.2869L100.947 13.1207Z" fill="#A55C55"/>
<path d="M119.719 23.9286H125.333L119.659 15.508L124.76 8.05322H119.599L117.094 12.6106L114.558 8.05322H109.096L114.317 15.4778L108.552 23.9286H113.894L116.852 18.9487L119.719 23.9286Z" fill="#A55C55"/>
<path d="M13.1978 11.4095L3.79147 5.80615L1.33337 10.1943L8.31438 14.3462L13.1978 11.4095Z" fill="#ECC100"/>
<path d="M23.6856 14.3462L30.6666 10.1943L28.2085 5.80615L18.7694 11.4095L23.6856 14.3462Z" fill="#ECC100"/>
<path d="M15.9835 9.75527L18.4416 8.3038V0H13.5254V8.3038L15.9835 9.75527Z" fill="#ECC100"/>
<path d="M30.6667 21.806L18.4418 14.5486L15.9837 13.0972L1.33337 21.806L3.79147 26.1942L11.1002 21.8398C11.3297 21.7048 11.5918 21.6035 11.8868 21.6035C12.8045 21.6035 13.5256 22.3461 13.5256 23.2913V32.0001H18.4418V23.2913C18.4418 22.3461 19.1628 21.6035 20.0805 21.6035C20.3755 21.6035 20.6377 21.7048 20.8671 21.8398L28.2086 26.1605L30.6667 21.806Z" fill="#ECC100"/>
<path d="M143.238 11.164C144.455 11.164 145.504 11.274 146.384 11.494C147.279 11.714 147.961 12.022 148.43 12.418C148.914 12.814 149.156 13.2613 149.156 13.76C149.156 14.2733 148.951 14.6913 148.54 15.014C148.144 15.3367 147.587 15.498 146.868 15.498C146.135 15.498 145.511 15.3147 144.998 14.948C144.499 14.5813 144.25 14.1193 144.25 13.562C144.25 13.3713 144.279 13.188 144.338 13.012C144.074 12.9387 143.839 12.902 143.634 12.902C143.267 12.902 142.959 12.99 142.71 13.166C142.475 13.342 142.365 13.5913 142.38 13.914C142.38 14.2953 142.571 14.618 142.952 14.882C143.333 15.146 143.949 15.476 144.8 15.872C145.533 16.1947 146.135 16.4953 146.604 16.774C147.088 17.038 147.491 17.3753 147.814 17.786C148.151 18.1967 148.32 18.6807 148.32 19.238C148.32 19.3553 148.291 19.5753 148.232 19.898C147.997 20.8807 147.345 21.658 146.274 22.23C145.203 22.802 143.795 23.088 142.05 23.088C140.085 23.088 138.523 22.824 137.364 22.296C136.22 21.768 135.648 21.042 135.648 20.118C135.648 19.4873 135.839 19.0107 136.22 18.688C136.601 18.3653 137.107 18.204 137.738 18.204C138.471 18.204 139.095 18.4313 139.608 18.886C140.136 19.3407 140.4 19.92 140.4 20.624C140.4 20.8147 140.378 21.0127 140.334 21.218C140.686 21.306 141.023 21.35 141.346 21.35C141.727 21.35 142.043 21.2473 142.292 21.042C142.541 20.8367 142.666 20.5507 142.666 20.184C142.651 19.8467 142.483 19.5607 142.16 19.326C141.837 19.0767 141.324 18.7833 140.62 18.446C139.96 18.138 139.417 17.852 138.992 17.588C138.567 17.3093 138.2 16.9647 137.892 16.554C137.599 16.1433 137.452 15.6593 137.452 15.102C137.452 13.8993 137.951 12.946 138.948 12.242C139.96 11.5233 141.39 11.164 143.238 11.164ZM157.027 11.252C157.922 11.252 158.706 11.384 159.381 11.648C160.056 11.8973 160.576 12.2493 160.943 12.704C161.324 13.144 161.515 13.6353 161.515 14.178C161.515 14.7647 161.31 15.2487 160.899 15.63C160.503 16.0113 159.96 16.202 159.271 16.202C158.567 16.202 158.017 16.026 157.621 15.674C157.225 15.3073 157.027 14.816 157.027 14.2C157.027 13.9067 157.071 13.5987 157.159 13.276C156.543 13.4373 155.993 13.76 155.509 14.244C155.04 14.7133 154.724 15.3367 154.563 16.114C154.475 16.554 154.431 16.95 154.431 17.302C154.431 18.094 154.651 18.6953 155.091 19.106C155.531 19.5167 156.162 19.722 156.983 19.722C157.452 19.722 157.856 19.678 158.193 19.59C158.53 19.4873 158.875 19.3553 159.227 19.194C159.52 19.0473 159.733 18.974 159.865 18.974C159.953 18.974 160.012 18.996 160.041 19.04C160.07 19.0693 160.085 19.1427 160.085 19.26C160.1 19.8027 159.872 20.3747 159.403 20.976C158.948 21.5627 158.31 22.0613 157.489 22.472C156.682 22.868 155.773 23.066 154.761 23.066C153.705 23.066 152.766 22.8753 151.945 22.494C151.138 22.098 150.508 21.5407 150.053 20.822C149.613 20.0887 149.393 19.238 149.393 18.27C149.393 17.8153 149.452 17.3093 149.569 16.752C149.965 14.9333 150.838 13.562 152.187 12.638C153.551 11.714 155.164 11.252 157.027 11.252ZM168.819 11.362C170.506 11.362 171.855 11.6773 172.867 12.308C173.879 12.924 174.385 13.87 174.385 15.146C174.385 15.63 174.297 16.18 174.121 16.796L173.219 19.832C173.204 19.8907 173.197 19.964 173.197 20.052C173.197 20.2867 173.292 20.404 173.483 20.404C173.659 20.404 173.806 20.3307 173.923 20.184C174.055 20.0227 174.143 19.942 174.187 19.942C174.26 19.942 174.319 19.9933 174.363 20.096C174.422 20.1987 174.451 20.316 174.451 20.448C174.466 20.844 174.312 21.2473 173.989 21.658C173.681 22.0687 173.263 22.406 172.735 22.67C172.207 22.934 171.628 23.066 170.997 23.066C170.234 23.066 169.582 22.9267 169.039 22.648C168.496 22.3693 168.122 21.9587 167.917 21.416C167.477 21.944 166.956 22.3547 166.355 22.648C165.754 22.9267 165.108 23.066 164.419 23.066C163.642 23.066 162.989 22.9193 162.461 22.626C161.933 22.318 161.537 21.9293 161.273 21.46C161.024 20.976 160.899 20.47 160.899 19.942C160.899 19.7073 160.921 19.48 160.965 19.26C161.2 18.248 161.706 17.4853 162.483 16.972C163.275 16.4587 164.214 16.202 165.299 16.202C166.516 16.202 167.712 16.3927 168.885 16.774L169.435 15.322C169.626 14.706 169.721 14.2293 169.721 13.892C169.706 13.54 169.589 13.276 169.369 13.1C169.149 12.924 168.812 12.836 168.357 12.836C168.445 13.0707 168.489 13.3127 168.489 13.562C168.489 14.1047 168.284 14.574 167.873 14.97C167.462 15.366 166.876 15.564 166.113 15.564C165.394 15.564 164.83 15.41 164.419 15.102C164.023 14.7793 163.825 14.3833 163.825 13.914C163.825 13.1807 164.236 12.572 165.057 12.088C165.878 11.604 167.132 11.362 168.819 11.362ZM167.587 18.028C167.176 18.028 166.839 18.1893 166.575 18.512C166.326 18.82 166.201 19.1573 166.201 19.524C166.201 19.7587 166.252 19.9493 166.355 20.096C166.472 20.2427 166.634 20.316 166.839 20.316C167.03 20.316 167.235 20.2427 167.455 20.096C167.69 19.9347 167.858 19.7 167.961 19.392L168.423 18.094C168.174 18.05 167.895 18.028 167.587 18.028ZM188.977 19.964C188.948 20.0227 188.933 20.1107 188.933 20.228C188.933 20.3307 188.955 20.4113 188.999 20.47C189.058 20.5287 189.131 20.558 189.219 20.558C189.395 20.558 189.542 20.4847 189.659 20.338C189.791 20.1767 189.879 20.096 189.923 20.096C189.997 20.096 190.055 20.1473 190.099 20.25C190.143 20.338 190.165 20.448 190.165 20.58C190.18 21.0053 190.041 21.4233 189.747 21.834C189.454 22.23 189.021 22.56 188.449 22.824C187.892 23.0733 187.217 23.198 186.425 23.198C185.457 23.198 184.687 22.978 184.115 22.538C183.543 22.0833 183.25 21.482 183.235 20.734C183.235 20.1913 183.367 19.5827 183.631 18.908L184.841 15.74C184.915 15.5493 184.951 15.3953 184.951 15.278C184.951 15.0873 184.885 14.9407 184.753 14.838C184.636 14.7207 184.489 14.662 184.313 14.662C183.991 14.662 183.683 14.816 183.389 15.124C183.096 15.4173 182.883 15.784 182.751 16.224L181.387 20.712C181.329 20.8733 181.299 21.0273 181.299 21.174C181.299 21.35 181.336 21.4967 181.409 21.614C181.483 21.7167 181.585 21.8267 181.717 21.944C181.82 22.032 181.893 22.1127 181.937 22.186C181.981 22.2593 181.989 22.3473 181.959 22.45C181.901 22.6407 181.761 22.78 181.541 22.868C181.321 22.956 180.977 23 180.507 23H175.491C175.11 23 174.839 22.9413 174.677 22.824C174.501 22.692 174.435 22.5233 174.479 22.318C174.538 22.142 174.692 21.988 174.941 21.856C175.161 21.7387 175.345 21.5993 175.491 21.438C175.638 21.2767 175.763 21.02 175.865 20.668L177.823 14.31C177.853 14.2367 177.867 14.134 177.867 14.002C177.867 13.8407 177.831 13.716 177.757 13.628C177.699 13.54 177.596 13.43 177.449 13.298C177.303 13.1807 177.2 13.078 177.141 12.99C177.083 12.902 177.075 12.7847 177.119 12.638C177.207 12.3007 177.669 12.0073 178.505 11.758C179.341 11.494 180.214 11.362 181.123 11.362C181.857 11.362 182.436 11.5673 182.861 11.978C183.287 12.374 183.477 12.9313 183.433 13.65C184.035 12.7847 184.673 12.1907 185.347 11.868C186.022 11.5307 186.755 11.362 187.547 11.362C188.442 11.362 189.161 11.6333 189.703 12.176C190.261 12.7187 190.539 13.4227 190.539 14.288C190.539 14.7427 190.466 15.19 190.319 15.63L188.977 19.964Z" fill="#483534"/>
</svg>
